<svg xmlns="http://www.w3.org/2000/svg" xmlns:xlink="http://www.w3.org/1999/xlink" version="1.1" x="0px" y="0px" viewBox="0 0 100 87.5" enable-background="new 0 0 100 70" xml:space="preserve"><path d="M92,0H8L0,13h0.001C0.013,17.41,3.587,20.979,8,20.979c2.393,0,4.534-1.055,6-2.719c1.466,1.664,3.607,2.719,6,2.719  s4.534-1.055,6-2.719c1.466,1.664,3.607,2.719,6,2.719s4.534-1.055,6-2.719c1.466,1.664,3.607,2.719,6,2.719s4.534-1.055,6-2.719  c1.466,1.664,3.606,2.719,6,2.719s4.534-1.055,6-2.719c1.466,1.664,3.606,2.719,6,2.719s4.534-1.055,6-2.719  c1.466,1.664,3.606,2.719,6,2.719s4.534-1.055,6-2.719c1.466,1.664,3.606,2.719,6,2.719c4.413,0,7.987-3.569,7.999-7.979H100L92,0z"/><path d="M86,23.365c-1.807,1.205-3.873,1.859-6,1.859s-4.193-0.654-6-1.859c-1.807,1.205-3.873,1.859-6,1.859s-4.193-0.654-6-1.859  c-1.807,1.205-3.873,1.859-6,1.859s-4.193-0.654-6-1.859c-1.807,1.205-3.873,1.859-6,1.859s-4.193-0.654-6-1.859  c-1.807,1.205-3.873,1.859-6,1.859s-4.193-0.654-6-1.859c-1.807,1.205-3.873,1.859-6,1.859s-4.193-0.654-6-1.859  c-1.807,1.205-3.873,1.859-6,1.859V70h9V34h18v36h57V25.224C89.873,25.224,87.807,24.57,86,23.365z M83,57H44V34h39V57z"/></svg>